<svg xmlns="http://www.w3.org/2000/svg" width="18" height="18" viewBox="0 0 18 18"><defs><style>.a{fill:none;opacity:0.12;}.b{opacity:0.24;}</style></defs><g transform="translate(-292 -182)"><rect class="a" width="18" height="18" transform="translate(292 182)"/><g class="b" transform="translate(1 0.269)"><path d="M8.457,0H2.343A2.345,2.345,0,0,0,0,2.343v8.645a2.345,2.345,0,0,0,2.343,2.343H8.457A2.345,2.345,0,0,0,10.8,10.988V2.343A2.345,2.345,0,0,0,8.457,0ZM2.343,11.984a.994.994,0,0,1-1-1V2.343a.994.994,0,0,1,1-1H8.457a.994.994,0,0,1,1,1v8.645a.994.994,0,0,1-1,1Z" transform="translate(292 197.157) rotate(-90)"/><path d="M9.265,0a.667.667,0,0,0-.673.673V8.6A2.529,2.529,0,0,1,6.06,11.136H.673a.673.673,0,1,0,0,1.347H6.06A3.879,3.879,0,0,0,9.938,8.6V.673A.675.675,0,0,0,9.265,0Z" transform="translate(295.515 193.669) rotate(-90)"/></g></g></svg>