<svg xmlns="http://www.w3.org/2000/svg" xmlns:xlink="http://www.w3.org/1999/xlink" width="24" height="24" viewBox="0 0 24 24">
  <defs>
    <clipPath id="clip-pdf_download">
      <rect width="24" height="24"/>
    </clipPath>
  </defs>
  <g id="pdf_download" clip-path="url(#clip-pdf_download)">
    <g id="Group_120" data-name="Group 120" transform="translate(-284 -187)">
      <rect id="Rectangle_27" data-name="Rectangle 27" width="24" height="24" transform="translate(284 187)" fill="none"/>
      <path id="pdf_icon" data-name="pdf icon" d="M17.2,21.047c-.081.244-.081.244-.244.651l-.027.054A13.747,13.747,0,0,1,16.2,23.3c-.326.163-.651.326-1.112.6-.977.57-1.655.977-1.9,1.628a1.485,1.485,0,0,0,.244,1.791,1.331,1.331,0,0,0,.868.326,1.28,1.28,0,0,0,.868-.326,3.441,3.441,0,0,0,.733-1.085c.081-.136.163-.3.271-.516.434-.841.705-1.411.76-1.492,0-.027.027-.054.054-.081.19-.081.407-.163.651-.271a22.189,22.189,0,0,1,2.089-.76l.38-.136c.3-.109.516-.163.733-.244.271-.109.488-.163.705-.244.19.163.38.353.624.543a3.4,3.4,0,0,0,1.248.76A2.434,2.434,0,0,0,24.5,23.76a1.222,1.222,0,0,0,1-1.248c.027-.407-.217-1.112-1.275-1.3a6.345,6.345,0,0,0-2.035,0,1.624,1.624,0,0,1-.326.054,7.724,7.724,0,0,1-.76-.95,26.225,26.225,0,0,1-1.492-2.388c-.081-.136-.163-.3-.244-.434.054-.244.109-.516.163-.841l.081-.38a4.516,4.516,0,0,0,.109-2.225c-.19-.923-.814-1.14-1.14-1.112h0c-.163,0-.814.109-1.085,1.058a3.189,3.189,0,0,0,0,1.818,7.056,7.056,0,0,0,.76,1.818,20.022,20.022,0,0,1-.6,1.954C17.392,20.477,17.256,20.83,17.2,21.047Zm-1.981,4.124c-.109.19-.19.38-.271.516a2.814,2.814,0,0,1-.488.787.284.284,0,0,1-.326-.027c-.027-.027-.109-.081.081-.57.109-.271.624-.6,1.085-.9A.405.405,0,0,1,15.221,25.171Zm7.95-2.985a3.975,3.975,0,0,1,.923.081c.271.054.353.163.353.19v.19a.373.373,0,0,1-.163.054,1.281,1.281,0,0,1-.543.027,2.717,2.717,0,0,1-.814-.516A.751.751,0,0,1,23.171,22.187Zm-4.585-7.923a.648.648,0,0,1,.081-.19c.027.027.027.081.054.163a3.146,3.146,0,0,1-.054,1.574.839.839,0,0,1-.054-.217A2.231,2.231,0,0,1,18.586,14.264Zm-.624,7.869.027-.054c.163-.434.163-.434.271-.705.054-.19.19-.57.488-1.438.136-.353.217-.678.3-.95a20.836,20.836,0,0,0,1.221,1.926c.19.244.326.461.488.651l-.244.081c-.19.081-.407.136-.705.244l-.38.136c-.678.217-1.058.353-1.682.6C17.826,22.458,17.88,22.3,17.962,22.132Zm9.361-.054v2.6h-3.5a1.923,1.923,0,0,0-1.9,1.9v3.582H13.729a2.16,2.16,0,0,1-2.144-2.2V12.283a2.2,2.2,0,0,1,2.144-2.2h11.45A2.2,2.2,0,0,1,27.3,11.849a4.4,4.4,0,0,1,.6-.027,2.949,2.949,0,0,1,.488.027A3.276,3.276,0,0,0,25.152,9H13.729A3.248,3.248,0,0,0,10.5,12.283v15.71a3.248,3.248,0,0,0,3.229,3.283h8.845c.027,0,.027,0,.054-.027.027,0,.027,0,.054-.027.027,0,.027-.027.054-.027a.027.027,0,0,0,.027-.027l.081-.081h0l5.372-5.454h0a.027.027,0,0,1,.027-.027l.054-.054c0-.027.027-.027.027-.054s.027-.027.027-.054,0-.027.027-.054v-.163h0V22.078a3.284,3.284,0,0,1-.516.027A3.46,3.46,0,0,1,27.322,22.078Zm-4.314,7.3V26.609a.8.8,0,0,1,.814-.814h2.74Z" transform="translate(275.65 179)"/>
      <g id="download_icon" data-name="download icon" transform="translate(25.696 7)">
        <ellipse id="Ellipse_9" data-name="Ellipse 9" cx="4.477" cy="4.477" rx="4.477" ry="4.477" transform="translate(273.343 184.468)" fill="#ffc400"/>
        <path id="Path_234" data-name="Path 234" d="M32.646,26.3l.769.726-1.645,1.73a.535.535,0,0,1-.384.171h0A.5.5,0,0,1,31,28.752l-1.559-1.73.79-.726.641.7V23.7h1.068v3.368Z" transform="translate(246.397 162.804)" fill="#fff"/>
      </g>
    </g>
  </g>
</svg>
