<svg xmlns="http://www.w3.org/2000/svg" xmlns:xlink="http://www.w3.org/1999/xlink" viewBox="0 0 90 90">
  <defs>
    <style>
      .cls-1 {
        clip-path: url(#clip-sad);
      }
    </style>
    <clipPath id="clip-sad">
      <rect width="90" height="90"/>
    </clipPath>
  </defs>
  <g id="sad" class="cls-1">
    <g id="noun_emoticon_1967975">
      <g id="Group_71" data-name="Group 71" transform="translate(0 0)">
        <path id="Path_212" data-name="Path 212" d="M76.966,13.034a45.713,45.713,0,0,1,0,63.931,45.713,45.713,0,0,1-63.931,0,45.713,45.713,0,0,1,0-63.931A45.713,45.713,0,0,1,76.966,13.034Zm-3.1,3.1A40.817,40.817,0,0,0,16.138,73.862a40.464,40.464,0,0,0,57.724,0A40.464,40.464,0,0,0,73.862,16.138Z" transform="translate(0 0)"/>
        <path id="Path_213" data-name="Path 213" d="M72.144,77l9.747,9.433L72.144,96.18,69,93.35l6.918-6.918-6.6-6.6Z" transform="translate(-47.633 -53.187)"/>
        <path id="Path_214" data-name="Path 214" d="M189.747,77,180,86.433l9.747,9.747,3.144-2.83-6.918-6.918,6.6-6.6Z" transform="translate(-124.259 -53.187)"/>
        <path id="Path_215" data-name="Path 215" d="M81,192.144h9.747l4.4,8.175,4.716-8.175h3.144l4.716,7.861,4.4-7.861h9.119V189H110.557l-2.83,4.717L104.9,189H97.979l-2.83,5.031L92.32,189H81Z" transform="translate(-56.124 -130.454)"/>
      </g>
    </g>
  </g>
</svg>
