<svg xmlns="http://www.w3.org/2000/svg" viewBox="0 0 108 69"><defs><clipPath id="A"><path d="M0 0h108v69H0z"/></clipPath></defs><g clip-path="url(#A)"><path d="M17.205 50.987C28.233 60.44 40.59 66.143 54 66.143s25.767-5.7 36.795-15.156a86.82 86.82 0 0 0 10.151-10.307 73.74 73.74 0 0 0 2.688-3.414 39.3 39.3 0 0 0 .958-1.347 2.43 2.43 0 0 0 0-2.694c-.173-.26-.494-.718-.958-1.347a73.74 73.74 0 0 0-2.688-3.414c-3.09-3.712-6.487-7.16-10.15-10.307C79.767 8.704 67.41 3 54 3S28.233 8.7 17.205 18.156c-3.665 3.148-7.06 6.596-10.15 10.308a73.74 73.74 0 0 0-2.688 3.414c-.465.63-.786 1.088-.958 1.347a2.43 2.43 0 0 0 0 2.694c.173.26.494.718.958 1.347a73.74 73.74 0 0 0 2.688 3.414" fill="none" stroke="#ffc400" stroke-linecap="round" stroke-width="5"/><path d="M61.044 20.708a2.5 2.5 0 0 0 2.276-4.452zm9.826 2.162a2.5 2.5 0 0 0-4.335.338 2.5 2.5 0 0 0 .223 2.506zM69.5 34.52c0 8.56-6.94 15.5-15.5 15.5v5c11.322 0 20.5-9.178 20.5-20.5zM54 50.02c-8.56 0-15.5-6.94-15.5-15.5h-5c0 11.322 9.178 20.5 20.5 20.5zm-15.5-15.5c0-8.56 6.94-15.5 15.5-15.5v-5c-11.322 0-20.5 9.178-20.5 20.5zM54 19.02c2.45-.004 4.863.575 7.044 1.69l2.276-4.452c-2.885-1.474-6.08-2.24-9.32-2.237zm12.758 6.695a15.42 15.42 0 0 1 2.742 8.805h5c.006-4.162-1.26-8.227-3.63-11.65z"/><circle cx="54" cy="34.519" r="5.5" stroke-width="5" fill="rgba(0,0,0,0)" stroke="#000"/></g></svg>